<svg width="20" height="20" viewBox="0 0 20 20" fill="none" xmlns="http://www.w3.org/2000/svg">
<g clip-path="url(#clip0_27_23)">
<path d="M9.99996 13.3332C11.8409 13.3332 13.3333 11.8408 13.3333 9.99984C13.3333 8.15889 11.8409 6.6665 9.99996 6.6665C8.15901 6.6665 6.66663 8.15889 6.66663 9.99984C6.66663 11.8408 8.15901 13.3332 9.99996 13.3332Z" stroke="black" stroke-width="2" stroke-linecap="round" stroke-linejoin="round"/>
<path d="M14.1666 1.6665H5.83329C3.53211 1.6665 1.66663 3.53198 1.66663 5.83317V14.1665C1.66663 16.4677 3.53211 18.3332 5.83329 18.3332H14.1666C16.4678 18.3332 18.3333 16.4677 18.3333 14.1665V5.83317C18.3333 3.53198 16.4678 1.6665 14.1666 1.6665Z" stroke="black" stroke-width="2" stroke-linecap="round" stroke-linejoin="round"/>
</g>
<defs>
<clipPath id="clip0_27_23">
<rect width="20" height="20" fill="white"/>
</clipPath>
</defs>
</svg>
