<svg width="20" height="20" viewBox="0 0 20 20" fill="none" xmlns="http://www.w3.org/2000/svg">
<g clip-path="url(#clip0_27_33)">
<path d="M6.29626 5.94891V6.41187M1.66663 7.59243C1.66663 5.51836 1.66663 4.48132 2.07033 3.68873C2.42541 2.99186 2.99198 2.42529 3.68885 2.07021C4.48144 1.6665 5.51848 1.6665 7.59255 1.6665H12.4074C14.4814 1.6665 15.5185 1.6665 16.3111 2.07021C17.0079 2.42529 17.5745 2.99186 17.9296 3.68873C18.3333 4.48132 18.3333 5.51836 18.3333 7.59243V12.4072C18.3333 14.4813 18.3333 15.5184 17.9296 16.3109C17.5745 17.0078 17.0079 17.5744 16.3111 17.9295C15.5185 18.3332 14.4814 18.3332 12.4074 18.3332H7.59255C5.51848 18.3332 4.48144 18.3332 3.68885 17.9295C2.99198 17.5744 2.42541 17.0078 2.07033 16.3109C1.66663 15.5184 1.66663 14.4813 1.66663 12.4072V7.59243Z" stroke="black" stroke-width="1.5" stroke-linecap="round" stroke-linejoin="round"/>
<path d="M6.29626 14.0506V8.84229M9.99997 14.0506V11.3886M9.99997 11.3886V8.84229M9.99997 11.3886C9.99997 10.196 11.1314 9.53673 12.2222 9.53673C13.7037 9.53673 13.7037 10.8099 13.7037 12.1988V14.0506" stroke="black" stroke-width="1.5" stroke-linecap="round" stroke-linejoin="round"/>
</g>
<defs>
<clipPath id="clip0_27_33">
<rect width="20" height="20" fill="white"/>
</clipPath>
</defs>
</svg>
